<?xml version="1.0" standalone="no"?>
<!DOCTYPE svg PUBLIC "-//W3C//DTD SVG 20010904//EN"
 "http://www.w3.org/TR/2001/REC-SVG-20010904/DTD/svg10.dtd">
<svg version="1.0" xmlns="http://www.w3.org/2000/svg"
 width="512.000000pt" height="512.000000pt" viewBox="0 0 512.000000 512.000000"
 preserveAspectRatio="xMidYMid meet">

<g transform="translate(0.000000,512.000000) scale(0.100000,-0.100000)"
fill="#000000" stroke="none">
<path d="M1473 4991 c-112 -41 -241 -155 -331 -291 -229 -346 -349 -912 -253
-1192 68 -197 197 -349 371 -437 41 -20 86 -40 99 -44 l24 -6 -6 -123 c-3 -68
-25 -685 -48 -1372 l-43 -1248 28 -53 c17 -33 44 -64 68 -82 l41 -28 177 0
177 0 41 28 c24 18 51 49 68 82 l28 53 -42 1254 c-24 689 -46 1305 -49 1368
l-6 116 67 28 c253 108 423 334 456 605 35 288 -91 759 -281 1051 -66 101
-201 229 -284 270 -62 30 -81 34 -160 37 -69 2 -102 -2 -142 -16z"/>
<path d="M3032 4994 c-12 -8 -27 -24 -32 -35 -15 -27 -109 -966 -117 -1164 -7
-199 8 -287 72 -420 70 -145 205 -274 347 -331 l48 -19 0 -62 c0 -34 -20 -648
-45 -1364 -34 -968 -42 -1311 -35 -1341 15 -52 71 -113 124 -133 34 -13 73
-16 199 -13 155 3 156 3 199 33 24 17 54 51 68 75 23 42 24 54 22 160 -3 159
-80 2423 -86 2542 l-5 96 72 35 c192 91 326 252 383 457 31 111 23 313 -35
900 -29 283 -57 528 -63 543 -24 61 -120 77 -169 28 l-29 -29 0 -639 c0 -695
1 -683 -55 -683 -57 0 -55 -25 -55 667 0 574 -2 638 -17 663 -34 58 -116 68
-164 21 l-29 -29 0 -639 c0 -695 1 -683 -55 -683 -57 0 -55 -25 -55 667 0 574
-2 638 -17 663 -34 58 -116 68 -164 21 l-29 -29 0 -639 c0 -695 1 -683 -55
-683 -57 0 -55 -25 -55 667 0 574 -2 638 -17 663 -29 49 -105 66 -151 34z"/>
</g>
</svg>
