<svg width="25" height="25" viewBox="0 0 25 25" fill="none" xmlns="http://www.w3.org/2000/svg">
<path d="M4.8112 16.6678C5.06259 16.8174 5.27844 17.0121 5.45069 17.2371H8.70585V14.0806L7.16235 13.1236C6.81858 12.9105 6.71268 12.459 6.9258 12.1153C7.13896 11.7716 7.59024 11.6657 7.93415 11.8787L9.43821 12.8112L10.7492 11.9984C8.13433 8.41283 8.73485 3.33221 12.2155 0.464604C6.48209 -1.45611 0.467662 2.8135 0.440516 8.94559C0.426357 12.1976 2.15769 15.0882 4.8112 16.6678Z" fill="#014F99"/>
<path d="M5.90918 18.7012H12.8421V20.3612H5.90918V18.7012Z" fill="#014F99"/>
<path d="M10.1709 14.0815V17.2379H13.2902C13.4558 17.0194 13.6625 16.8321 13.9029 16.6904C14.5686 16.2987 15.1797 15.8208 15.7213 15.2738C14.1914 14.9293 12.8175 14.1686 11.725 13.1172C11.6833 13.1442 11.3831 13.3299 10.1709 14.0815Z" fill="#014F99"/>
<path d="M17.5775 0.00195312C13.7372 0.00195312 10.5957 3.17534 10.5957 7.03254C10.5957 10.6607 13.3808 13.6651 16.952 13.9857C21.0847 14.3549 24.5592 11.0789 24.5592 7.03254C24.5592 3.18281 21.4273 0.00195312 17.5775 0.00195312ZM18.3108 10.2069V10.3599C18.3108 10.7644 17.9829 11.0923 17.5784 11.0923C17.174 11.0923 16.8461 10.7644 16.8461 10.3599V10.2897C16.5087 10.2305 16.2004 10.1042 15.8109 9.84941C15.4724 9.628 15.3776 9.17414 15.599 8.83564C15.8204 8.4971 16.2743 8.40228 16.6128 8.62365C16.9698 8.85722 17.0854 8.87543 17.5735 8.87206C18.0446 8.86894 18.2323 8.4991 18.269 8.2811C18.3019 8.08537 18.265 7.82514 17.902 7.69688C17.294 7.48191 16.6704 7.23526 16.2287 6.8888C15.2229 6.09991 15.5265 4.29808 16.8461 3.81859V3.71254C16.8461 3.30809 17.174 2.98019 17.5785 2.98019C17.983 2.98019 18.3108 3.30809 18.3108 3.71254V3.75316C18.6717 3.85501 18.9623 4.03922 19.1619 4.24223C19.4456 4.53058 19.4417 4.99426 19.1533 5.27787C18.865 5.56134 18.4017 5.55758 18.1181 5.26972C18.0773 5.22983 17.8517 5.04171 17.3632 5.18882C17.1682 5.24755 17.1158 5.44978 17.1044 5.51037C17.0806 5.63682 17.1145 5.72207 17.1327 5.73632C17.4089 5.953 17.9234 6.15088 18.3902 6.31591C20.3204 6.99817 20.0852 9.56536 18.3108 10.2069Z" fill="#014F99"/>
<path d="M7.08008 22.705C7.08008 23.9703 8.10947 24.9997 9.37478 24.9997C10.6401 24.9997 11.6695 23.9703 11.6695 22.705V21.8262H7.08008V22.705Z" fill="#014F99"/>
</svg>
