<svg width="40" height="40" viewBox="0 0 40 40" fill="none" xmlns="http://www.w3.org/2000/svg">
<rect x="0.5" y="0.5" width="39" height="39" stroke="#718EBF"/>
<path d="M20.0003 15.0003V21.667M20.0003 28.3337H20.0169M17.1503 6.43367L3.03361 30.0003C2.74256 30.5044 2.58856 31.0758 2.58693 31.6579C2.5853 32.2399 2.7361 32.8122 3.02432 33.3179C3.31255 33.8235 3.72815 34.2449 4.22979 34.5401C4.73143 34.8353 5.30161 34.9939 5.88361 35.0003H34.1169C34.6989 34.9939 35.2691 34.8353 35.7708 34.5401C36.2724 34.2449 36.688 33.8235 36.9762 33.3179C37.2645 32.8122 37.4153 32.2399 37.4136 31.6579C37.412 31.0758 37.258 30.5044 36.9669 30.0003L22.8503 6.43367C22.5532 5.94385 22.1348 5.53887 21.6356 5.25781C21.1364 4.97675 20.5732 4.8291 20.0003 4.8291C19.4274 4.8291 18.8642 4.97675 18.365 5.25781C17.8657 5.53887 17.4474 5.94385 17.1503 6.43367Z" stroke="#014F99" stroke-width="4" stroke-linecap="round" stroke-linejoin="round"/>
</svg>
