<svg width="25" height="25" viewBox="0 0 25 25" fill="none" xmlns="http://www.w3.org/2000/svg">
<g clip-path="url(#clip0_168_350)">
<path d="M3.125 11.4583H11.4583V3.125H3.125V11.4583ZM5.20833 5.20833H9.375V9.375H5.20833V5.20833Z" fill="#B1B1B1"/>
<path d="M3.125 21.8753H11.4583V13.542H3.125V21.8753ZM5.20833 15.6253H9.375V19.792H5.20833V15.6253Z" fill="#B1B1B1"/>
<path d="M13.542 3.125V11.4583H21.8753V3.125H13.542ZM19.792 9.375H15.6253V5.20833H19.792V9.375Z" fill="#B1B1B1"/>
<path d="M21.8753 19.792H19.792V21.8753H21.8753V19.792Z" fill="#B1B1B1"/>
<path d="M15.6253 13.542H13.542V15.6253H15.6253V13.542Z" fill="#B1B1B1"/>
<path d="M17.7083 15.625H15.625V17.7083H17.7083V15.625Z" fill="#B1B1B1"/>
<path d="M15.6253 17.708H13.542V19.7913H15.6253V17.708Z" fill="#B1B1B1"/>
<path d="M17.7083 19.792H15.625V21.8753H17.7083V19.792Z" fill="#B1B1B1"/>
<path d="M19.7913 17.708H17.708V19.7913H19.7913V17.708Z" fill="#B1B1B1"/>
<path d="M19.7913 13.542H17.708V15.6253H19.7913V13.542Z" fill="#B1B1B1"/>
<path d="M21.8753 15.625H19.792V17.7083H21.8753V15.625Z" fill="#B1B1B1"/>
</g>
<defs>
<clipPath id="clip0_168_350">
<rect width="25" height="25" fill="white"/>
</clipPath>
</defs>
</svg>
