<svg width="25" height="25" viewBox="0 0 25 25" fill="none" xmlns="http://www.w3.org/2000/svg">
<path d="M0 11.1111H11.1111V0H0V11.1111ZM2.77778 2.77778H8.33333V8.33333H2.77778V2.77778Z" fill="#014F99"/>
<path d="M0 24.9998H11.1111V13.8887H0V24.9998ZM2.77778 16.6664H8.33333V22.222H2.77778V16.6664Z" fill="#014F99"/>
<path d="M13.8887 0V11.1111H24.9998V0H13.8887ZM22.222 8.33333H16.6664V2.77778H22.222V8.33333Z" fill="#014F99"/>
<path d="M25.0004 22.2227H22.2227V25.0004H25.0004V22.2227Z" fill="#014F99"/>
<path d="M16.6664 13.8887H13.8887V16.6664H16.6664V13.8887Z" fill="#014F99"/>
<path d="M19.4448 16.667H16.667V19.4448H19.4448V16.667Z" fill="#014F99"/>
<path d="M16.6664 19.4443H13.8887V22.2221H16.6664V19.4443Z" fill="#014F99"/>
<path d="M19.4448 22.2227H16.667V25.0004H19.4448V22.2227Z" fill="#014F99"/>
<path d="M22.2221 19.4443H19.4443V22.2221H22.2221V19.4443Z" fill="#014F99"/>
<path d="M22.2221 13.8887H19.4443V16.6664H22.2221V13.8887Z" fill="#014F99"/>
<path d="M25.0004 16.667H22.2227V19.4448H25.0004V16.667Z" fill="#014F99"/>
</svg>
