<svg width="25" height="25" viewBox="0 0 25 25" fill="none" xmlns="http://www.w3.org/2000/svg">
<path d="M20.3125 7L13.4375 3.025C12.8625 2.6875 12.1375 2.6875 11.5625 3.025L4.6875 7C4.1125 7.3375 3.75 7.95 3.75 8.625V16.5625C3.75 17.2375 4.1125 17.85 4.6875 18.1875L11.5625 22.1625C12.1375 22.5 12.8625 22.5 13.4375 22.1625L20.3125 18.1875C20.8875 17.85 21.25 17.2375 21.25 16.5625V8.625C21.25 7.95 20.8875 7.3375 20.3125 7ZM6.25 16.2V10.425L11.25 13.325V19.0875L6.25 16.2ZM12.5 11.1625L7.5 8.2625L12.5 5.375L17.5 8.2625L12.5 11.1625ZM13.75 19.0875V13.325L18.75 10.425V16.2L13.75 19.0875ZM6.25 0H1.875C0.8375 0 0 0.8375 0 1.875V6.25H2.5V2.5H6.25V0ZM18.75 0H23.125C24.1625 0 25 0.8375 25 1.875V6.25H22.5V2.5H18.75V0ZM6.25 25H1.875C0.8375 25 0 24.1625 0 23.125V18.75H2.5V22.5H6.25V25ZM18.75 25H23.125C24.1625 25 25 24.1625 25 23.125V18.75H22.5V22.5H18.75V25Z" fill="#B1B1B1"/>
</svg>
