<svg width="20" height="20" viewBox="0 0 20 20" fill="none" xmlns="http://www.w3.org/2000/svg">
<path d="M19.5097 18.2109L14.8901 13.6094C16.0352 12.2188 16.7254 10.4375 16.7254 8.49609C16.7254 4.04297 13.0979 0.429688 8.62734 0.429688C4.15283 0.429688 0.529297 4.04297 0.529297 8.49609C0.529297 12.9492 4.15283 16.5625 8.62734 16.5625C10.5764 16.5625 12.3607 15.8789 13.7567 14.7383L18.3764 19.3359C18.6901 19.6484 19.196 19.6484 19.5097 19.3359C19.8234 19.0273 19.8234 18.5195 19.5097 18.2109ZM8.62734 14.957C5.04694 14.957 2.13714 12.0586 2.13714 8.49609C2.13714 4.93359 5.04694 2.03125 8.62734 2.03125C12.2038 2.03125 15.1175 4.93359 15.1175 8.49609C15.1175 12.0586 12.2038 14.957 8.62734 14.957Z" fill="#718EBF"/>
</svg>
