<svg width="60" height="60" viewBox="0 0 60 60" fill="none" xmlns="http://www.w3.org/2000/svg">
<rect width="60" height="60" rx="20" fill="#014F99" fill-opacity="0.3"/>
<g clip-path="url(#clip0_68_1780)">
<g clip-path="url(#clip1_68_1780)">
<path d="M30.3223 30.0426C31.9767 30.0426 33.4093 29.4492 34.5799 28.2785C35.7504 27.1079 36.3438 25.6757 36.3438 24.0211C36.3438 22.367 35.7504 20.9346 34.5797 19.7637C33.4089 18.5934 31.9765 18 30.3223 18C28.6677 18 27.2354 18.5934 26.0649 19.7639C24.8943 20.9344 24.3008 22.3669 24.3008 24.0211C24.3008 25.6757 24.8943 27.1081 26.0651 28.2787C27.2358 29.449 28.6682 30.0426 30.3223 30.0426Z" fill="#232323"/>
<path d="M40.8579 37.2239C40.8241 36.7368 40.7558 36.2054 40.6553 35.6443C40.5538 35.0789 40.4232 34.5445 40.2668 34.056C40.1052 33.5512 39.8855 33.0526 39.6139 32.5748C39.332 32.0789 39.0009 31.6471 38.6293 31.2917C38.2408 30.92 37.7651 30.6211 37.215 30.4031C36.6668 30.1862 36.0593 30.0764 35.4095 30.0764C35.1543 30.0764 34.9075 30.1811 34.4309 30.4914C34.1375 30.6827 33.7944 30.904 33.4114 31.1487C33.0839 31.3573 32.6402 31.5528 32.0923 31.7298C31.5576 31.9028 31.0148 31.9906 30.479 31.9906C29.9432 31.9906 29.4006 31.9028 28.8654 31.7298C28.318 31.553 27.8743 31.3575 27.5472 31.1489C27.1679 30.9064 26.8245 30.6852 26.5268 30.4912C26.0507 30.1809 25.8037 30.0762 25.5485 30.0762C24.8985 30.0762 24.2912 30.1862 23.7432 30.4033C23.1935 30.6209 22.7176 30.9198 22.3287 31.2919C21.9574 31.6474 21.6261 32.0791 21.3445 32.5748C21.0731 33.0526 20.8534 33.551 20.6917 34.0562C20.5354 34.5447 20.4048 35.0789 20.3033 35.6443C20.2028 36.2046 20.1345 36.7362 20.1008 37.2245C20.0676 37.7029 20.0508 38.1993 20.0508 38.7008C20.0508 40.0058 20.4656 41.0623 21.2837 41.8414C22.0916 42.6103 23.1607 43.0003 24.4608 43.0003H36.4984C37.7985 43.0003 38.8672 42.6105 39.6753 41.8414C40.4936 41.0628 40.9084 40.0062 40.9084 38.7006C40.9082 38.1969 40.8912 37.7 40.8579 37.2239Z" fill="#232323"/>
</g>
</g>
<g clip-path="url(#clip2_68_1780)">
<g clip-path="url(#clip3_68_1780)">
<path d="M30.3223 30.0426C31.9767 30.0426 33.4093 29.4492 34.5799 28.2785C35.7504 27.1079 36.3438 25.6757 36.3438 24.0211C36.3438 22.367 35.7504 20.9346 34.5797 19.7637C33.4089 18.5934 31.9765 18 30.3223 18C28.6677 18 27.2354 18.5934 26.0649 19.7639C24.8943 20.9344 24.3008 22.3669 24.3008 24.0211C24.3008 25.6757 24.8943 27.1081 26.0651 28.2787C27.2358 29.449 28.6682 30.0426 30.3223 30.0426Z" fill="#014F99"/>
<path d="M40.8579 37.2239C40.8241 36.7368 40.7558 36.2054 40.6553 35.6443C40.5538 35.0789 40.4232 34.5445 40.2668 34.056C40.1052 33.5512 39.8855 33.0526 39.6139 32.5748C39.332 32.0789 39.0009 31.6471 38.6293 31.2917C38.2408 30.92 37.7651 30.6211 37.215 30.4031C36.6668 30.1862 36.0593 30.0764 35.4095 30.0764C35.1543 30.0764 34.9075 30.1811 34.4309 30.4914C34.1375 30.6827 33.7944 30.904 33.4114 31.1487C33.0839 31.3573 32.6402 31.5528 32.0923 31.7298C31.5576 31.9028 31.0148 31.9906 30.479 31.9906C29.9432 31.9906 29.4006 31.9028 28.8654 31.7298C28.318 31.553 27.8743 31.3575 27.5472 31.1489C27.1679 30.9064 26.8245 30.6852 26.5268 30.4912C26.0507 30.1809 25.8037 30.0762 25.5485 30.0762C24.8985 30.0762 24.2912 30.1862 23.7432 30.4033C23.1935 30.6209 22.7176 30.9198 22.3287 31.2919C21.9574 31.6474 21.6261 32.0791 21.3445 32.5748C21.0731 33.0526 20.8534 33.551 20.6917 34.0562C20.5354 34.5447 20.4048 35.0789 20.3033 35.6443C20.2028 36.2046 20.1345 36.7362 20.1008 37.2245C20.0676 37.7029 20.0508 38.1993 20.0508 38.7008C20.0508 40.0058 20.4656 41.0623 21.2837 41.8414C22.0916 42.6103 23.1607 43.0003 24.4608 43.0003H36.4984C37.7985 43.0003 38.8672 42.6105 39.6753 41.8414C40.4936 41.0628 40.9084 40.0062 40.9084 38.7006C40.9082 38.1969 40.8912 37.7 40.8579 37.2239Z" fill="#014F99"/>
</g>
</g>
<defs>
<clipPath id="clip0_68_1780">
<rect width="25" height="25" fill="white" transform="translate(18 18)"/>
</clipPath>
<clipPath id="clip1_68_1780">
<rect width="25" height="25" fill="white" transform="translate(18 18)"/>
</clipPath>
<clipPath id="clip2_68_1780">
<rect width="25" height="25" fill="white" transform="translate(18 18)"/>
</clipPath>
<clipPath id="clip3_68_1780">
<rect width="25" height="25" fill="white" transform="translate(18 18)"/>
</clipPath>
</defs>
</svg>
